<?xml version="1.0" encoding="UTF-8" standalone="no"?>
<!-- Created with Inkscape (http://www.inkscape.org/) -->

<svg
   width="210mm"
   height="297mm"
   viewBox="0 0 210 297"
   version="1.1"
   id="svg1"
   inkscape:version="1.4 (86a8ad7, 2024-10-11)"
   sodipodi:docname="drawing.svg"
   xmlns:inkscape="http://www.inkscape.org/namespaces/inkscape"
   xmlns:sodipodi="http://sodipodi.sourceforge.net/DTD/sodipodi-0.dtd"
   xmlns="http://www.w3.org/2000/svg"
   xmlns:svg="http://www.w3.org/2000/svg">
  <sodipodi:namedview
     id="namedview1"
     pagecolor="#ffffff"
     bordercolor="#000000"
     borderopacity="0.25"
     inkscape:showpageshadow="2"
     inkscape:pageopacity="0.0"
     inkscape:pagecheckerboard="0"
     inkscape:deskcolor="#d1d1d1"
     inkscape:document-units="mm"
     inkscape:zoom="0.73827583"
     inkscape:cx="308.82767"
     inkscape:cy="398.22515"
     inkscape:window-width="1440"
     inkscape:window-height="830"
     inkscape:window-x="-6"
     inkscape:window-y="-6"
     inkscape:window-maximized="1"
     inkscape:current-layer="layer1" />
  <defs
     id="defs1">
    <marker
       style="overflow:visible"
       id="Triangle"
       refX="0"
       refY="0"
       orient="auto-start-reverse"
       inkscape:stockid="Triangle arrow"
       markerWidth="1"
       markerHeight="1"
       viewBox="0 0 1 1"
       inkscape:isstock="true"
       inkscape:collect="always"
       preserveAspectRatio="xMidYMid">
      <path
         transform="scale(0.5)"
         style="fill:context-stroke;fill-rule:evenodd;stroke:context-stroke;stroke-width:1pt"
         d="M 5.77,0 -2.88,5 V -5 Z"
         id="path135" />
    </marker>
  </defs>
  <g
     inkscape:label="Layer 1"
     inkscape:groupmode="layer"
     id="layer1">
    <rect
       style="fill:none;stroke:#000001;stroke-width:0.3"
       id="rect1"
       width="93.17881"
       height="6.8092179"
       x="28.547306"
       y="136.02164" />
    <rect
       style="fill:none;stroke:#000001;stroke-width:0.348351"
       id="rect2"
       width="93.895576"
       height="59.434914"
       x="151.35213"
       y="123.94315"
       ry="0"
       transform="matrix(1,0,-0.67077142,0.74166415,0,0)" />
    <path
       style="fill:none;stroke:#000001;stroke-width:0.3"
       d="m 121.00928,142.11446 40.85533,-44.080936 -0.35838,-6.809222"
       id="path2" />
    <path
       style="fill:none;stroke:#000001;stroke-width:0.3;marker-end:url(#Triangle)"
       d="M 92.462055,113.60648 C 43.005607,180.98193 43.005607,180.98193 43.005607,180.98193"
       id="path3" />
    <path
       style="fill:none;stroke:#000001;stroke-width:0.3"
       d="M 39.063427,123.64112 132.959,123.46193"
       id="path4" />
    <path
       style="fill:none;stroke:#000001;stroke-width:0.3"
       d="M 46.768596,114.86081 H 140.84336"
       id="path5" />
    <path
       style="fill:none;stroke:#000001;stroke-width:1.53582"
       d="m 153.73658,465.18187 c 0,-0.42276 5.9429,-7.39584 13.20645,-15.49575 l 13.20644,-14.72709 81.73613,-0.0811 81.73612,-0.0811 -5.09989,7.11116 c -2.80495,3.91114 -7.89074,10.89567 -11.30176,15.52118 l -6.20184,8.41002 -83.64082,0.0557 c -46.00246,0.0306 -83.64083,-0.29024 -83.64083,-0.71299 z"
       id="path6"
       transform="scale(0.26458333)" />
    <path
       style="fill:#000000;stroke:#000001;stroke-width:1.53582"
       d="m 158.02585,463.29052 c 0.24833,-0.71801 5.54522,-7.11806 11.77087,-14.22232 l 11.31936,-12.91685 h 79.76997 79.76996 l -10.31412,14.22233 -10.31413,14.22233 h -81.2267 c -51.52692,0 -81.06162,-0.47734 -80.77521,-1.30549 z"
       id="path7"
       transform="scale(0.26458333)" />
    <path
       style="fill:#000000;stroke:#000001;stroke-width:1.53582"
       d="m 331.89618,455.67606 c 4.17908,-5.65095 9.23168,-12.63739 11.22801,-15.52543 l 3.62968,-5.25097 92.58863,-0.0514 92.58862,-0.0514 -9.96367,10.92074 c -5.48003,6.0064 -11.69902,13.01598 -13.81996,15.57683 l -3.85628,4.65609 h -89.99667 -89.99667 z"
       id="path8"
       transform="scale(0.26458333)" />
  </g>
</svg>
